<?xml version="1.0" encoding="UTF-8" standalone="no"?>
<!-- Created with Inkscape (http://www.inkscape.org/) -->

<svg
   xmlns:dc="http://purl.org/dc/elements/1.1/"
   xmlns:cc="http://creativecommons.org/ns#"
   xmlns:rdf="http://www.w3.org/1999/02/22-rdf-syntax-ns#"
   xmlns:svg="http://www.w3.org/2000/svg"
   xmlns="http://www.w3.org/2000/svg"
   xmlns:sodipodi="http://sodipodi.sourceforge.net/DTD/sodipodi-0.dtd"
   xmlns:inkscape="http://www.inkscape.org/namespaces/inkscape"
   width="210mm"
   height="297mm"
   viewBox="0 0 210 297"
   version="1.1"
   id="svg8"
   inkscape:version="0.92.4 (5da689c313, 2019-01-14)"
   sodipodi:docname="parrot.svg">
  <defs
     id="defs2" />
  <sodipodi:namedview
     id="base"
     pagecolor="#ffffff"
     bordercolor="#666666"
     borderopacity="1.0"
     inkscape:pageopacity="0.0"
     inkscape:pageshadow="2"
     inkscape:zoom="1.4142136"
     inkscape:cx="432.62699"
     inkscape:cy="829.83222"
     inkscape:document-units="mm"
     inkscape:current-layer="layer1"
     showgrid="false"
     inkscape:window-width="2400"
     inkscape:window-height="1271"
     inkscape:window-x="-9"
     inkscape:window-y="-9"
     inkscape:window-maximized="1" />
  <metadata
     id="metadata5">
    <rdf:RDF>
      <cc:Work
         rdf:about="">
        <dc:format>image/svg+xml</dc:format>
        <dc:type
           rdf:resource="http://purl.org/dc/dcmitype/StillImage" />
        <dc:title></dc:title>
      </cc:Work>
    </rdf:RDF>
  </metadata>
  <g
     inkscape:label="Layer 1"
     inkscape:groupmode="layer"
     id="layer1">
    <g
       id="g852"
       transform="translate(-29.372921,1.8708869)">
      <g
         transform="translate(5.2031694,-18.331845)"
         id="g826">
        <path
           inkscape:connector-curvature="0"
           id="path842"
           d="M 72.338203,97.523068 V 45.018433 h 29.337407 29.3374 V 97.523068 150.0277 h -29.3374 -29.337407 z"
           style="fill:#fdfdfd;stroke-width:0.23283653" />
        <path
           sodipodi:nodetypes="csccscccccsssscsssssssssccsscccccscssccccccccccccccc"
           inkscape:connector-curvature="0"
           id="path838"
           d="m 122.39806,136.99754 c -1.9745,-1.05738 -3.50623,-3.18423 -3.9311,-5.45843 -0.15893,-0.8507 -0.45717,-1.3771 -1.24643,-2.19995 -0.57063,-0.59492 -1.1747,-1.43088 -1.34236,-1.85769 -0.16767,-0.42681 -0.36713,-2.20435 -0.44324,-3.95009 -0.13493,-3.09492 -0.1529,-3.18105 -0.72048,-3.45437 -0.32015,-0.15416 -1.50425,-0.70763 -2.63133,-1.22994 -2.35099,-1.08948 -4.42682,-2.43959 -6.10004,-3.96742 -2.01863,-1.84324 -2.25404,-2.02075 -2.08064,-1.56885 0.41447,1.08008 -3.5829,0.19606 -7.32996,-1.62102 -2.412017,-1.16968 -2.866685,-1.4974 -4.906794,-3.53686 -2.411096,-2.41033 -3.991118,-4.80213 -4.878408,-7.38484 -1.825833,-5.314591 -1.499115,-11.153176 0.889021,-15.887157 0.857702,-1.700217 0.847023,-1.760535 -0.4756,-2.686424 l -1.211757,-0.848279 -1.67815,1.627211 c -0.922982,0.894965 -1.825928,1.62721 -2.006546,1.62721 -0.804813,0 -2.900186,-2.940311 -3.982267,-5.588076 -1.792789,-4.386813 -1.762049,-9.765003 0.07962,-13.930311 1.847825,-4.179228 5.814114,-8.102339 9.586294,-9.481937 3.194939,-1.168484 4.050277,-1.305934 7.471603,-1.20067 3.668995,0.112885 4.790154,0.366592 7.536484,1.705438 3.32368,1.620307 6.48649,4.716036 8.08894,7.917391 1.20354,2.404414 1.54947,3.95627 1.69662,7.610987 l 0.13882,3.447799 1.18809,0.596183 c 4.61586,2.316227 8.68445,6.661909 10.09817,10.785888 1.31629,3.839761 1.21831,1.641717 1.21831,27.331327 v 23.65987 l -1.10597,-0.0103 c -0.61762,-0.006 -1.46581,-0.20299 -1.9209,-0.4467 z M 104.46965,70.653627 c 1.49728,-0.915704 2.79403,-3.137647 2.79403,-4.787504 0,-0.996335 -0.78274,-2.933861 -1.54502,-3.824419 -1.23123,-1.438412 -2.27875,-1.888897 -4.39231,-1.888897 -2.616293,0 -4.060371,0.893023 -5.236787,3.238453 -0.424321,0.845972 -0.499821,1.324547 -0.429297,2.721156 0.0721,1.427747 0.194994,1.849322 0.780303,2.676714 0.94116,1.330426 2.24616,2.340517 3.307853,2.560336 1.517408,0.314171 3.562618,0.01274 4.721228,-0.695839 z m -5.124776,-1.478405 c -1.170378,-0.796553 -1.69935,-1.650984 -1.723002,-2.783115 l -0.0209,-1.000479 0.866753,0.06749 c 1.059122,0.08247 2.182895,-0.461678 2.418175,-1.170911 0.096,-0.289539 0.18205,-0.94375 0.19112,-1.4538 0.0121,-0.680777 0.12226,-0.947943 0.41423,-1.004754 0.70712,-0.137589 2.42868,0.805237 3.11619,1.70661 0.85249,1.117677 0.93889,3.027513 0.19461,4.301902 -1.02745,1.759221 -3.82852,2.445509 -5.457172,1.337056 z"
           style="fill:#f6d212;stroke-width:0.23283653" />
        <path
           inkscape:connector-curvature="0"
           id="path836"
           d="m 122.39806,136.99754 c -1.9745,-1.05738 -3.50623,-3.18423 -3.9311,-5.45843 -0.15893,-0.8507 -0.45717,-1.3771 -1.24643,-2.19995 -0.57063,-0.59492 -1.1747,-1.43088 -1.34236,-1.85769 -0.16767,-0.42681 -0.36713,-2.20435 -0.44324,-3.95009 -0.13493,-3.09492 -0.1529,-3.18105 -0.72048,-3.45437 -0.32015,-0.15416 -1.51536,-0.71302 -2.65603,-1.24191 -1.14068,-0.52888 -2.8457,-1.49512 -3.78894,-2.14718 -2.05233,-1.41877 -7.75806,-6.91926 -7.75806,-7.47899 0,-0.21729 -0.4617,-1.36385 -1.026001,-2.54792 -3.812247,-7.999148 -4.11424,-15.685275 -0.817091,-20.796001 0.501462,-0.777288 0.911751,-1.496422 0.911751,-1.598074 0,-0.101652 -0.288136,-0.125683 -0.640301,-0.0534 -2.624491,0.538648 -3.61879,0.639264 -5.012331,0.507204 -2.403431,-0.227763 -4.907972,-1.196629 -6.987614,-2.703114 l -0.940607,-0.681372 -1.683292,1.632195 c -0.92581,0.897711 -1.83107,1.632198 -2.011688,1.632198 -0.804813,0 -2.900186,-2.940311 -3.982267,-5.588076 -1.792789,-4.386813 -1.762049,-9.765003 0.07962,-13.930311 1.847825,-4.179228 5.814114,-8.102339 9.586294,-9.481937 3.194939,-1.168484 4.050277,-1.305934 7.471603,-1.20067 3.668995,0.112885 4.790154,0.366592 7.536484,1.705438 3.32368,1.620307 6.48649,4.716036 8.08894,7.917391 1.20354,2.404414 1.54947,3.95627 1.69662,7.610987 l 0.13882,3.447799 1.18809,0.596183 c 4.61586,2.316227 8.68445,6.661909 10.09817,10.785888 1.31629,3.839761 1.21831,1.641717 1.21831,27.331322 v 23.65987 l -1.10597,-0.0103 c -0.61762,-0.006 -1.46581,-0.20299 -1.9209,-0.4467 z M 104.46965,70.653627 c 1.49728,-0.915704 2.79403,-3.137647 2.79403,-4.787504 0,-0.996335 -0.78274,-2.933861 -1.54502,-3.824419 -1.23123,-1.438412 -2.27875,-1.888897 -4.39231,-1.888897 -2.616293,0 -4.060371,0.893023 -5.236787,3.238453 -0.424321,0.845972 -0.499821,1.324547 -0.429297,2.721156 0.0721,1.427747 0.194994,1.849322 0.780303,2.676714 0.94116,1.330426 2.24616,2.340517 3.307853,2.560336 1.517408,0.314171 3.562618,0.01274 4.721228,-0.695839 z m -5.124776,-1.478405 c -1.170378,-0.796553 -1.69935,-1.650984 -1.723002,-2.783115 l -0.0209,-1.000479 0.866753,0.06749 c 1.059122,0.08247 2.182895,-0.461678 2.418175,-1.170911 0.096,-0.289539 0.18205,-0.94375 0.19112,-1.4538 0.0121,-0.680777 0.12226,-0.947943 0.41423,-1.004754 0.70712,-0.137589 2.42868,0.805237 3.11619,1.70661 0.85249,1.117677 0.93889,3.027513 0.19461,4.301902 -1.02745,1.759221 -3.82852,2.445509 -5.457172,1.337056 z"
           style="fill:#019dce;stroke-width:0.23283653" />
        <path
           inkscape:connector-curvature="0"
           id="path834"
           d="m 122.39806,136.99754 c -1.9745,-1.05738 -3.50623,-3.18423 -3.9311,-5.45843 -0.15818,-0.84669 -0.45922,-1.38097 -1.23959,-2.19995 -0.56688,-0.59492 -1.16735,-1.396 -1.33439,-1.78018 -0.17593,-0.40463 -0.35501,-2.05959 -0.42564,-3.93361 l -0.12192,-3.2351 0.55765,0.13316 c 3.36016,0.80236 6.45122,1.3266 7.8338,1.32861 l 1.68806,0.002 v 7.80003 7.80002 l -1.10597,-0.0103 c -0.61762,-0.006 -1.46581,-0.20299 -1.9209,-0.4467 z m -5.02624,-22.77821 c -1.04167,-0.57637 -1.76757,-1.21136 -2.51748,-2.20219 -0.36346,-0.48022 -0.74209,-0.87314 -0.84141,-0.87314 -0.0993,0 -0.50293,0.30112 -0.89691,0.66916 -1.57223,1.46868 -3.95455,1.37553 -5.66733,-0.22161 l -0.94936,-0.88527 -0.83605,0.56812 c -0.45983,0.31246 -1.02129,0.56811 -1.24768,0.56811 -0.55288,0 -0.51931,0.22925 0.17046,1.16419 0.6961,0.94351 0.7117,1.01709 0.15208,0.71759 -0.67867,-0.36321 -4.22672,-4.20426 -4.22672,-4.57576 0,-0.18407 -0.4617,-1.30345 -1.026001,-2.48752 -3.812247,-7.999148 -4.11424,-15.685275 -0.817091,-20.796001 0.501462,-0.777288 0.911751,-1.496422 0.911751,-1.598074 0,-0.101652 -0.288136,-0.125683 -0.640301,-0.0534 -2.624491,0.538648 -3.61879,0.639264 -5.012331,0.507204 -2.403431,-0.227763 -4.907972,-1.196629 -6.987614,-2.703114 l -0.940607,-0.681372 -1.683292,1.632195 c -0.92581,0.897711 -1.83107,1.632198 -2.011688,1.632198 -0.804813,0 -2.900186,-2.940311 -3.982267,-5.588076 -1.792789,-4.386813 -1.762049,-9.765003 0.07962,-13.930311 0.751704,-1.70013 2.430924,-4.262807 3.408392,-5.201586 l 0.889435,-0.854231 10.769536,10.633364 c 7.807708,7.708984 10.769308,10.775965 10.768688,11.15188 -4.6e-4,0.312897 -0.25475,0.677082 -0.64114,0.918386 -3.54755,2.215468 -6.172999,6.498505 -6.683682,10.903434 -0.195785,1.688761 0.369952,6.308757 1.01992,8.329014 0.132996,0.41338 0.468509,1.46208 0.74558,2.33043 0.277073,0.86835 0.593314,1.63417 0.702759,1.7018 0.109444,0.0677 0.198989,0.28399 0.198989,0.48077 0,0.49879 0.921824,1.74363 1.175224,1.58703 0.11454,-0.0708 0.44705,0.14751 0.73891,0.48512 1.426,1.64956 3.61142,1.64921 4.6925,-7e-4 0.49472,-0.75503 0.91938,-0.75277 1.41756,0.008 0.81899,1.24994 2.94684,1.61283 4.57789,0.78073 0.73825,-0.37663 1.06997,-0.76058 1.53538,-1.77717 l 0.59367,-1.29675 1.07476,1.16106 c 1.43053,1.54542 1.68064,1.70732 3.17373,2.05439 2.44494,0.56835 4.7868,-0.43315 6.19121,-2.64767 l 0.67402,-1.06285 v 3.37103 3.37102 l -1.10597,1.12279 c -1.58757,1.61172 -2.48607,2.00745 -4.53104,1.9957 -1.1495,-0.007 -1.92933,-0.13812 -2.4161,-0.40746 z M 99.344874,69.175222 c -1.170378,-0.796553 -1.69935,-1.650984 -1.723002,-2.783115 l -0.0209,-1.000479 0.866753,0.06749 c 1.059122,0.08247 2.182895,-0.461678 2.418175,-1.170911 0.096,-0.289539 0.18205,-0.94375 0.19112,-1.4538 0.0121,-0.680777 0.12226,-0.947943 0.41423,-1.004754 0.70712,-0.137589 2.42868,0.805237 3.11619,1.70661 0.85249,1.117677 0.93889,3.027513 0.19461,4.301902 -1.02745,1.759221 -3.82852,2.445509 -5.457172,1.337056 z"
           style="fill:#118cb5;stroke-width:0.23283653" />
        <path
           inkscape:connector-curvature="0"
           id="path832"
           d="m 122.69898,136.57665 c -1.1725,-0.63499 -2.66592,-2.17026 -3.10665,-3.19371 -0.22131,-0.51392 -0.47561,-1.45086 -0.56512,-2.0821 -0.13755,-0.97 -0.33598,-1.3125 -1.28151,-2.21195 -1.48079,-1.40863 -1.86706,-2.60683 -1.86706,-5.79155 v -2.43241 l 0.75672,0.16944 c 0.41619,0.0932 1.17582,0.26373 1.68806,0.37896 2.02415,0.45536 3.54993,0.67151 4.77315,0.67621 0.70433,0.003 1.43777,0.10419 1.62986,0.22554 0.2981,0.18831 0.34925,1.27039 0.34925,7.38899 v 7.16837 l -0.81493,0.0543 c -0.44821,0.0299 -1.151,-0.12767 -1.56177,-0.35013 z m -5.45495,-22.81942 c -0.90564,-0.46877 -1.46997,-0.98082 -2.0529,-1.8627 -0.8795,-1.33054 -1.39604,-1.50811 -1.9459,-0.66891 -1.14278,1.7441 -4.46132,1.70947 -5.7697,-0.0602 -0.64416,-0.87128 -0.87572,-0.88739 -1.98027,-0.13782 -1.30779,0.88749 -1.97597,0.77374 -3.31383,-0.56412 -0.77573,-0.77573 -1.18426,-1.39659 -1.26396,-1.9209 -0.17704,-1.16467 0.01,-1.22342 1.01121,-0.31844 0.72809,0.65778 1.10283,0.82435 1.85469,0.82435 1.09402,0 2.1956,-0.50391 2.55026,-1.1666 0.25272,-0.47221 0.93005,-0.64614 0.93005,-0.23882 0,0.12345 0.39104,0.49016 0.86898,0.81493 1.85573,1.261 4.63952,0.56497 5.69456,-1.4238 0.29545,-0.55693 0.5984,-1.01259 0.67324,-1.01259 0.0748,0 0.46371,0.40772 0.86417,0.90604 2.06842,2.57387 6.70699,2.67896 8.79354,0.19924 0.86948,-1.03332 1.09269,-0.54525 0.93206,2.03801 -0.11142,1.79194 -0.22369,2.229 -0.77491,3.01678 -1.50103,2.1452 -4.62571,2.84142 -7.07129,1.57556 z m -15.83096,-3.25353 c -0.28962,-0.36929 -0.28138,-0.37752 0.0879,-0.0879 0.22411,0.17576 0.40746,0.35912 0.40746,0.40747 0,0.19163 -0.1912,0.0683 -0.49537,-0.31956 z m -0.69851,-0.93134 c -0.28962,-0.36929 -0.28138,-0.37753 0.0879,-0.0879 0.22411,0.17575 0.40746,0.35911 0.40746,0.40746 0,0.19164 -0.1912,0.0683 -0.49537,-0.31955 z M 92.827819,84.61154 C 91.149314,84.2958 89.263064,83.496612 87.56674,82.382461 l -1.577762,-1.036276 -1.678168,1.627227 c -0.922992,0.894977 -1.825946,1.627229 -2.006564,1.627229 -0.804813,0 -2.900186,-2.940311 -3.982267,-5.588076 -1.786379,-4.371124 -1.761451,-9.767762 0.06418,-13.894908 1.21847,-2.754554 3.219877,-5.430523 4.061588,-5.430523 0.362056,0 2.100925,1.593393 5.855003,5.365166 2.936997,2.950841 5.797811,5.725468 6.357365,6.165841 1.222336,0.96198 9.343855,9.313126 9.343855,9.608036 0,0.258158 -2.49728,2.212031 -3.47044,2.715265 -0.39634,0.204957 -0.720617,0.460204 -0.720617,0.567218 0,0.107012 -0.250199,0.146741 -0.556,0.08828 -0.3058,-0.05846 -0.767918,0.0071 -1.026925,0.145747 -0.635995,0.340374 -4.104337,0.512983 -5.402171,0.268851 z m 6.657733,-15.440148 c -1.167946,-0.667864 -1.717161,-1.437564 -1.907865,-2.67379 l -0.152655,-0.989555 h 1.09283 c 0.601058,0 1.294411,-0.107883 1.540788,-0.239739 0.66278,-0.354708 1.14934,-1.461327 1.08848,-2.475595 -0.0443,-0.738326 0.0273,-0.904813 0.41206,-0.958471 0.73934,-0.103101 2.50844,0.922445 3.0832,1.787336 0.67672,1.018297 0.71531,2.9305 0.0841,4.167728 -0.90596,1.775836 -3.40151,2.433932 -5.240958,1.382086 z"
           style="fill:#0171aa;stroke-width:0.23283653" />
        <path
           inkscape:connector-curvature="0"
           id="path830"
           d="m 101.41307,110.5037 c -0.28962,-0.36929 -0.28138,-0.37752 0.0879,-0.0879 0.22411,0.17576 0.40746,0.35912 0.40746,0.40747 0,0.19163 -0.1912,0.0683 -0.49537,-0.31956 z m -0.69851,-0.93134 c -0.28962,-0.36929 -0.28138,-0.37753 0.0879,-0.0879 0.22411,0.17575 0.40746,0.35911 0.40746,0.40746 0,0.19164 -0.1912,0.0683 -0.49537,-0.31955 z M 92.827819,84.596576 C 91.186846,84.311333 89.284685,83.510813 87.56674,82.382461 l -1.577762,-1.036276 -1.678168,1.627227 c -0.922992,0.894977 -1.825946,1.627229 -2.006564,1.627229 -0.804813,0 -2.900186,-2.940311 -3.982267,-5.588076 -1.792789,-4.386813 -1.762049,-9.765003 0.07962,-13.930311 1.112676,-2.516542 3.340514,-5.566442 3.916638,-5.361862 0.493367,0.175193 20.987223,20.677061 20.987223,20.995428 0,0.184604 -0.58028,0.783327 -1.28951,1.330497 -0.70924,0.547171 -1.52125,1.267155 -1.80449,1.599962 -0.3157,0.370962 -0.785254,0.621401 -1.213476,0.647216 -0.38418,0.02317 -1.222392,0.147886 -1.862692,0.277166 -1.3552,0.273625 -2.831345,0.282505 -4.307476,0.02591 z m 6.657733,-15.425184 c -1.167946,-0.667864 -1.717161,-1.437564 -1.907865,-2.67379 l -0.152655,-0.989555 h 1.09283 c 0.601058,0 1.294411,-0.107883 1.540788,-0.239739 0.66278,-0.354708 1.14934,-1.461327 1.08848,-2.475595 -0.0443,-0.738326 0.0273,-0.904813 0.41206,-0.958471 0.73934,-0.103101 2.50844,0.922445 3.0832,1.787336 0.67672,1.018297 0.71531,2.9305 0.0841,4.167728 -0.90596,1.775836 -3.40151,2.433932 -5.240958,1.382086 z"
           style="fill:#453c2d;stroke-width:0.23283653" />
        <path
           sodipodi:nodetypes="ccsscscscssscssssss"
           inkscape:connector-curvature="0"
           id="path828"
           d="m 87.106493,81.4116 -0.914516,-0.744257 4.072145,-4.0871 c 2.747492,-2.757583 4.234559,-4.087101 4.571428,-4.087101 0.524003,0 2.183327,1.640112 2.183327,2.158048 -1.649977,1.824458 -3.492355,3.732516 -5.106902,5.150768 -3.269009,2.87157 -2.713186,3.324989 -4.805482,1.609642 z M 100.1383,69.07361 c -0.748358,-0.147372 -1.966801,-1.533029 -2.022675,-2.300261 -0.04552,-0.625076 0.02103,-0.682322 0.941789,-0.81014 1.452686,-0.201659 2.385356,-1.170494 2.385356,-2.477834 0,-0.934666 0.0433,-1.004203 0.62589,-1.004203 0.85205,0 2.05036,0.865202 2.49777,1.80343 0.5085,1.066332 0.45597,2.102682 -0.16233,3.202555 -0.80474,1.431526 -2.27531,1.978433 -4.2658,1.586453 z M 80.617103,66.620422 c -0.917226,-1.309523 -0.101445,-3.673577 1.267667,-3.673577 1.660882,0 1.879588,2.047807 0.366772,3.434199 -0.977784,0.896072 -1.156172,0.922199 -1.634439,0.239378 z"
           style="fill:#221e17;stroke-width:0.23283653" />
      </g>
    </g>
  </g>
</svg>
